<mxfile host="app.diagrams.net" agent="Mozilla/5.0 (Windows NT 10.0; Win64; x64; rv:130.0) Gecko/20100101 Firefox/130.0" version="24.7.15">
  <diagram name="Page-1" id="f1resBihjJA7YEVhDyNh">
    <mxGraphModel dx="2074" dy="1134" grid="1" gridSize="10" guides="1" tooltips="1" connect="1" arrows="1" fold="1" page="1" pageScale="1" pageWidth="850" pageHeight="1100" math="0" shadow="0">
      <root>
        <mxCell id="0" />
        <mxCell id="1" parent="0" />
        <mxCell id="CFGmLskJlid70sAjZfMm-1" value="" style="rounded=1;whiteSpace=wrap;html=1;arcSize=46;fillColor=#808080;" vertex="1" parent="1">
          <mxGeometry x="85" y="120" width="680" height="360" as="geometry" />
        </mxCell>
        <mxCell id="CFGmLskJlid70sAjZfMm-2" value="" style="ellipse;whiteSpace=wrap;html=1;fillColor=#E6E6E6;" vertex="1" parent="1">
          <mxGeometry x="410" y="140" width="30" height="30" as="geometry" />
        </mxCell>
        <mxCell id="CFGmLskJlid70sAjZfMm-3" value="" style="ellipse;whiteSpace=wrap;html=1;fillColor=#E6E6E6;" vertex="1" parent="1">
          <mxGeometry x="410" y="250" width="30" height="30" as="geometry" />
        </mxCell>
        <mxCell id="CFGmLskJlid70sAjZfMm-4" value="" style="ellipse;whiteSpace=wrap;html=1;fillColor=#009900;" vertex="1" parent="1">
          <mxGeometry x="620" y="270" width="30" height="30" as="geometry" />
        </mxCell>
        <mxCell id="CFGmLskJlid70sAjZfMm-5" value="" style="ellipse;whiteSpace=wrap;html=1;fillColor=#990000;" vertex="1" parent="1">
          <mxGeometry x="620" y="190" width="30" height="30" as="geometry" />
        </mxCell>
        <mxCell id="CFGmLskJlid70sAjZfMm-6" value="" style="ellipse;whiteSpace=wrap;html=1;fillColor=#000099;" vertex="1" parent="1">
          <mxGeometry x="660" y="230" width="30" height="30" as="geometry" />
        </mxCell>
        <mxCell id="CFGmLskJlid70sAjZfMm-7" value="" style="ellipse;whiteSpace=wrap;html=1;direction=south;fillColor=#CCCC00;" vertex="1" parent="1">
          <mxGeometry x="580" y="230" width="30" height="30" as="geometry" />
        </mxCell>
        <mxCell id="CFGmLskJlid70sAjZfMm-8" value="" style="ellipse;whiteSpace=wrap;html=1;fillColor=#B3B3B3;" vertex="1" parent="1">
          <mxGeometry x="450" y="420" width="40" height="40" as="geometry" />
        </mxCell>
        <mxCell id="CFGmLskJlid70sAjZfMm-9" value="&lt;font style=&quot;font-size: 20px;&quot; color=&quot;#ffffff&quot;&gt;&lt;b&gt;2&lt;/b&gt;&lt;/font&gt;" style="ellipse;whiteSpace=wrap;html=1;fillColor=#333333;" vertex="1" parent="1">
          <mxGeometry x="340" y="340" width="40" height="40" as="geometry" />
        </mxCell>
        <mxCell id="CFGmLskJlid70sAjZfMm-10" value="&lt;font size=&quot;1&quot; color=&quot;#ffffff&quot;&gt;&lt;b style=&quot;font-size: 20px;&quot;&gt;1&lt;/b&gt;&lt;/font&gt;" style="ellipse;whiteSpace=wrap;html=1;fillColor=#333333;" vertex="1" parent="1">
          <mxGeometry x="215" y="340" width="40" height="40" as="geometry" />
        </mxCell>
        <mxCell id="CFGmLskJlid70sAjZfMm-11" value="&lt;font color=&quot;#ffffff&quot; style=&quot;font-size: 20px;&quot;&gt;&lt;b&gt;3&lt;/b&gt;&lt;/font&gt;" style="ellipse;whiteSpace=wrap;html=1;fillColor=#333333;" vertex="1" parent="1">
          <mxGeometry x="465" y="340" width="40" height="40" as="geometry" />
        </mxCell>
        <mxCell id="CFGmLskJlid70sAjZfMm-12" value="&lt;font color=&quot;#ffffff&quot; style=&quot;font-size: 20px;&quot;&gt;&lt;b&gt;4&lt;/b&gt;&lt;/font&gt;" style="ellipse;whiteSpace=wrap;html=1;fillColor=#333333;" vertex="1" parent="1">
          <mxGeometry x="595" y="340" width="40" height="40" as="geometry" />
        </mxCell>
        <mxCell id="CFGmLskJlid70sAjZfMm-13" value="" style="ellipse;whiteSpace=wrap;html=1;fillColor=#B3B3B3;" vertex="1" parent="1">
          <mxGeometry x="355" y="420" width="40" height="40" as="geometry" />
        </mxCell>
        <mxCell id="CFGmLskJlid70sAjZfMm-14" value="&lt;b&gt;&lt;font style=&quot;font-size: 14px;&quot; color=&quot;#ffffff&quot;&gt;A&lt;/font&gt;&lt;/b&gt;" style="ellipse;whiteSpace=wrap;html=1;fillColor=#990000;" vertex="1" parent="1">
          <mxGeometry x="140" y="180" width="20" height="20" as="geometry" />
        </mxCell>
        <mxCell id="CFGmLskJlid70sAjZfMm-15" value="&lt;font size=&quot;1&quot; color=&quot;#ffffff&quot;&gt;&lt;b style=&quot;font-size: 14px;&quot;&gt;B&lt;/b&gt;&lt;/font&gt;" style="ellipse;whiteSpace=wrap;html=1;fillColor=#990000;" vertex="1" parent="1">
          <mxGeometry x="180" y="180" width="20" height="20" as="geometry" />
        </mxCell>
        <mxCell id="CFGmLskJlid70sAjZfMm-16" value="&lt;font color=&quot;#ffffff&quot; style=&quot;font-size: 14px;&quot;&gt;&lt;b&gt;C&lt;/b&gt;&lt;/font&gt;" style="ellipse;whiteSpace=wrap;html=1;fillColor=#990000;" vertex="1" parent="1">
          <mxGeometry x="215" y="180" width="20" height="20" as="geometry" />
        </mxCell>
        <mxCell id="CFGmLskJlid70sAjZfMm-17" value="&lt;font color=&quot;#ffffff&quot; style=&quot;font-size: 14px;&quot;&gt;&lt;b&gt;D&lt;/b&gt;&lt;/font&gt;" style="ellipse;whiteSpace=wrap;html=1;fillColor=#990000;" vertex="1" parent="1">
          <mxGeometry x="250" y="180" width="20" height="20" as="geometry" />
        </mxCell>
        <mxCell id="CFGmLskJlid70sAjZfMm-18" value="" style="rounded=0;whiteSpace=wrap;html=1;fillColor=#E6E6E6;" vertex="1" parent="1">
          <mxGeometry x="365" y="400" width="20" height="40" as="geometry" />
        </mxCell>
        <mxCell id="CFGmLskJlid70sAjZfMm-19" value="" style="rounded=0;whiteSpace=wrap;html=1;fillColor=#E6E6E6;" vertex="1" parent="1">
          <mxGeometry x="460" y="400" width="20" height="40" as="geometry" />
        </mxCell>
        <mxCell id="CFGmLskJlid70sAjZfMm-20" value="" style="ellipse;whiteSpace=wrap;html=1;fillColor=none;strokeColor=#990000;strokeWidth=3;dashed=1;" vertex="1" parent="1">
          <mxGeometry x="120" y="160" width="170" height="60" as="geometry" />
        </mxCell>
        <mxCell id="CFGmLskJlid70sAjZfMm-21" value="" style="ellipse;whiteSpace=wrap;html=1;fillColor=none;strokeColor=#999900;strokeWidth=3;dashed=1;" vertex="1" parent="1">
          <mxGeometry x="560" y="170" width="150" height="150" as="geometry" />
        </mxCell>
        <mxCell id="CFGmLskJlid70sAjZfMm-22" value="" style="ellipse;whiteSpace=wrap;html=1;fillColor=none;strokeColor=#004C99;strokeWidth=3;dashed=1;" vertex="1" parent="1">
          <mxGeometry x="180" y="320" width="480" height="80" as="geometry" />
        </mxCell>
        <mxCell id="CFGmLskJlid70sAjZfMm-23" value="" style="ellipse;whiteSpace=wrap;html=1;fillColor=none;strokeColor=#CC6600;strokeWidth=3;dashed=1;" vertex="1" parent="1">
          <mxGeometry x="320" y="390" width="220" height="90" as="geometry" />
        </mxCell>
        <mxCell id="CFGmLskJlid70sAjZfMm-24" value="&lt;font style=&quot;font-size: 30px;&quot;&gt;Feedback light&lt;br&gt;&lt;/font&gt;" style="text;html=1;align=center;verticalAlign=middle;whiteSpace=wrap;rounded=0;" vertex="1" parent="1">
          <mxGeometry x="355" y="30" width="220" height="30" as="geometry" />
        </mxCell>
        <mxCell id="CFGmLskJlid70sAjZfMm-25" value="&lt;div&gt;&lt;font style=&quot;font-size: 30px;&quot;&gt;Indicator light&lt;/font&gt;&lt;/div&gt;" style="text;html=1;align=center;verticalAlign=middle;whiteSpace=wrap;rounded=0;" vertex="1" parent="1">
          <mxGeometry x="250" y="70" width="220" height="30" as="geometry" />
        </mxCell>
        <mxCell id="CFGmLskJlid70sAjZfMm-27" value="&lt;font style=&quot;font-size: 30px;&quot;&gt;Blinkers &lt;/font&gt;" style="text;html=1;align=center;verticalAlign=middle;whiteSpace=wrap;rounded=0;" vertex="1" parent="1">
          <mxGeometry x="580" y="80" width="220" height="30" as="geometry" />
        </mxCell>
        <mxCell id="CFGmLskJlid70sAjZfMm-28" value="&lt;font style=&quot;font-size: 30px;&quot;&gt;Module lights&lt;br&gt;&lt;/font&gt;" style="text;html=1;align=center;verticalAlign=middle;whiteSpace=wrap;rounded=0;" vertex="1" parent="1">
          <mxGeometry x="30" y="80" width="220" height="30" as="geometry" />
        </mxCell>
        <mxCell id="CFGmLskJlid70sAjZfMm-29" value="&lt;font style=&quot;font-size: 30px;&quot;&gt;Buttons&lt;br&gt;&lt;/font&gt;" style="text;html=1;align=center;verticalAlign=middle;whiteSpace=wrap;rounded=0;" vertex="1" parent="1">
          <mxGeometry x="175" y="520" width="220" height="30" as="geometry" />
        </mxCell>
        <mxCell id="CFGmLskJlid70sAjZfMm-30" value="&lt;font style=&quot;font-size: 30px;&quot;&gt;Switches&lt;br&gt;&lt;/font&gt;" style="text;html=1;align=center;verticalAlign=middle;whiteSpace=wrap;rounded=0;" vertex="1" parent="1">
          <mxGeometry x="450" y="520" width="220" height="30" as="geometry" />
        </mxCell>
        <mxCell id="CFGmLskJlid70sAjZfMm-32" value="" style="endArrow=classic;html=1;rounded=0;exitX=0.5;exitY=1;exitDx=0;exitDy=0;entryX=0.5;entryY=0;entryDx=0;entryDy=0;strokeWidth=3;strokeColor=#990000;" edge="1" parent="1" source="CFGmLskJlid70sAjZfMm-28" target="CFGmLskJlid70sAjZfMm-20">
          <mxGeometry width="50" height="50" relative="1" as="geometry">
            <mxPoint y="240" as="sourcePoint" />
            <mxPoint x="50" y="190" as="targetPoint" />
          </mxGeometry>
        </mxCell>
        <mxCell id="CFGmLskJlid70sAjZfMm-33" value="" style="endArrow=classic;html=1;rounded=0;exitX=0.5;exitY=1;exitDx=0;exitDy=0;entryX=0.5;entryY=0;entryDx=0;entryDy=0;strokeWidth=3;strokeColor=#660066;" edge="1" parent="1" source="CFGmLskJlid70sAjZfMm-25" target="CFGmLskJlid70sAjZfMm-3">
          <mxGeometry width="50" height="50" relative="1" as="geometry">
            <mxPoint x="870" y="230" as="sourcePoint" />
            <mxPoint x="920" y="180" as="targetPoint" />
          </mxGeometry>
        </mxCell>
        <mxCell id="CFGmLskJlid70sAjZfMm-34" value="" style="endArrow=classic;html=1;rounded=0;exitX=0.5;exitY=1;exitDx=0;exitDy=0;entryX=1;entryY=0;entryDx=0;entryDy=0;strokeWidth=3;strokeColor=#4C0099;" edge="1" parent="1" source="CFGmLskJlid70sAjZfMm-24" target="CFGmLskJlid70sAjZfMm-2">
          <mxGeometry width="50" height="50" relative="1" as="geometry">
            <mxPoint x="970" y="250" as="sourcePoint" />
            <mxPoint x="1020" y="200" as="targetPoint" />
          </mxGeometry>
        </mxCell>
        <mxCell id="CFGmLskJlid70sAjZfMm-35" value="" style="endArrow=classic;html=1;rounded=0;exitX=0.5;exitY=1;exitDx=0;exitDy=0;strokeWidth=3;strokeColor=#999900;" edge="1" parent="1" source="CFGmLskJlid70sAjZfMm-27" target="CFGmLskJlid70sAjZfMm-21">
          <mxGeometry width="50" height="50" relative="1" as="geometry">
            <mxPoint x="790" y="670" as="sourcePoint" />
            <mxPoint x="840" y="620" as="targetPoint" />
          </mxGeometry>
        </mxCell>
        <mxCell id="CFGmLskJlid70sAjZfMm-36" value="" style="endArrow=classic;html=1;rounded=0;exitX=0.5;exitY=0;exitDx=0;exitDy=0;entryX=0.25;entryY=0.963;entryDx=0;entryDy=0;entryPerimeter=0;strokeWidth=3;strokeColor=#004C99;" edge="1" parent="1" source="CFGmLskJlid70sAjZfMm-29" target="CFGmLskJlid70sAjZfMm-22">
          <mxGeometry width="50" height="50" relative="1" as="geometry">
            <mxPoint x="210" y="740" as="sourcePoint" />
            <mxPoint x="260" y="690" as="targetPoint" />
          </mxGeometry>
        </mxCell>
        <mxCell id="CFGmLskJlid70sAjZfMm-37" value="" style="endArrow=classic;html=1;rounded=0;exitX=0.5;exitY=0;exitDx=0;exitDy=0;entryX=1;entryY=1;entryDx=0;entryDy=0;strokeWidth=3;strokeColor=#CC6600;" edge="1" parent="1" source="CFGmLskJlid70sAjZfMm-30" target="CFGmLskJlid70sAjZfMm-23">
          <mxGeometry width="50" height="50" relative="1" as="geometry">
            <mxPoint x="730" y="720" as="sourcePoint" />
            <mxPoint x="780" y="670" as="targetPoint" />
          </mxGeometry>
        </mxCell>
      </root>
    </mxGraphModel>
  </diagram>
</mxfile>
